<svg width="1079" height="1293" viewBox="0 0 1079 1293" fill="none" xmlns="http://www.w3.org/2000/svg">
<path d="M48.42 1191V1096.68C48.42 1089.12 50.04 1082.46 53.28 1076.7C56.64 1070.82 61.26 1066.26 67.14 1063.02C73.02 1059.66 79.74 1057.98 87.3 1057.98C93.78 1057.98 99.24 1058.88 103.68 1060.68C108.24 1062.48 111.48 1064.22 113.4 1065.9L107.1 1081.92C104.94 1080.36 102.24 1078.86 99 1077.42C95.76 1075.98 92.58 1075.26 89.46 1075.26C83.46 1075.26 78.66 1076.28 75.06 1078.32C71.58 1080.36 69.06 1083 67.5 1086.24C66.06 1089.48 65.34 1092.96 65.34 1096.68V1191H56.88C55.92 1191 54.72 1191 53.28 1191C51.96 1191 50.34 1191 48.42 1191ZM26.1 1117.02V1099.92H107.46V1117.02H26.1ZM169.2 1191V1057.8H187.74V1191H169.2ZM302.768 1192.8C294.488 1192.8 287.168 1190.88 280.808 1187.04C274.448 1183.08 269.468 1177.44 265.868 1170.12C262.388 1162.8 260.648 1154.1 260.648 1144.02V1096.5H279.188V1137.18C279.188 1145.34 280.268 1152.18 282.428 1157.7C284.588 1163.22 287.948 1167.36 292.508 1170.12C297.188 1172.88 303.128 1174.26 310.328 1174.26C315.248 1174.26 319.868 1173.54 324.188 1172.1C328.628 1170.54 332.528 1168.32 335.888 1165.44C339.248 1162.44 341.888 1158.9 343.808 1154.82C345.728 1150.62 346.688 1145.94 346.688 1140.78V1096.5H365.228V1191H346.688V1171.2L349.928 1169.04C348.368 1172.64 345.488 1176.3 341.288 1180.02C337.088 1183.62 331.748 1186.68 325.268 1189.2C318.788 1191.6 311.288 1192.8 302.768 1192.8ZM470.249 1191L416.609 1096.5H438.389L481.589 1176.6L476.369 1178.22L521.549 1096.5H542.429L487.169 1191H470.249ZM640.977 1192.8C628.497 1192.8 617.397 1190.76 607.677 1186.68C597.957 1182.48 590.337 1176.78 584.817 1169.58C579.417 1162.26 576.717 1153.98 576.717 1144.74C576.717 1136.82 578.337 1129.8 581.577 1123.68C584.937 1117.44 589.497 1112.16 595.257 1107.84C601.137 1103.52 607.857 1100.22 615.417 1097.94C622.977 1095.54 630.957 1094.34 639.357 1094.34C647.277 1094.34 654.717 1095.48 661.677 1097.76C668.637 1099.92 674.757 1103.04 680.037 1107.12C685.317 1111.2 689.397 1116.06 692.277 1121.7C695.277 1127.22 696.717 1133.4 696.597 1140.24L696.417 1149.96H593.997L589.857 1135.2H680.397L677.697 1136.46V1132.14C677.097 1128.06 674.877 1124.46 671.037 1121.34C667.317 1118.22 662.637 1115.82 656.997 1114.14C651.477 1112.34 645.597 1111.44 639.357 1111.44C631.197 1111.44 623.757 1112.46 617.037 1114.5C610.317 1116.54 604.977 1119.9 601.017 1124.58C597.057 1129.26 595.077 1135.56 595.077 1143.48C595.077 1149.96 597.177 1155.6 601.377 1160.4C605.577 1165.2 611.397 1168.92 618.837 1171.56C626.277 1174.2 634.857 1175.52 644.577 1175.52C654.297 1175.52 662.337 1174.26 668.697 1171.74C675.057 1169.22 680.217 1166.82 684.177 1164.54L692.277 1178.58C688.677 1180.98 684.117 1183.32 678.597 1185.6C673.197 1187.76 667.257 1189.5 660.777 1190.82C654.297 1192.14 647.697 1192.8 640.977 1192.8ZM762.237 1191V1096.5H780.777V1123.14L773.937 1123.5C776.697 1118.94 780.237 1114.44 784.557 1110C788.997 1105.56 794.217 1101.9 800.217 1099.02C806.337 1096.02 813.177 1094.52 820.737 1094.52C830.697 1094.52 838.977 1096.38 845.577 1100.1C852.297 1103.7 857.337 1108.62 860.697 1114.86C864.057 1120.98 865.737 1127.76 865.737 1135.2V1191H847.197V1138.26C847.197 1132.98 845.757 1128.36 842.877 1124.4C840.117 1120.44 836.397 1117.38 831.717 1115.22C827.157 1112.94 822.057 1111.8 816.417 1111.8C811.257 1111.8 806.457 1112.76 802.017 1114.68C797.697 1116.48 793.917 1118.88 790.677 1121.88C787.557 1124.76 785.097 1127.88 783.297 1131.24C781.617 1134.6 780.777 1137.84 780.777 1140.96V1191H771.597C768.477 1191 766.137 1191 764.577 1191C763.017 1191 762.237 1191 762.237 1191ZM958.755 1232.4L984.315 1188.48V1202.52L924.195 1096.5H945.975L973.875 1148.16C978.315 1156.32 982.035 1163.52 985.035 1169.76C988.035 1175.88 990.015 1181.28 990.975 1185.96H988.635C990.315 1181.4 992.535 1175.94 995.295 1169.58C998.175 1163.22 1001.65 1156.08 1005.73 1148.16L1032.73 1096.5H1054.33L1001.05 1192.08L978.555 1232.4H958.755Z" fill="url(#paint0_linear_727_96)"/>
<path d="M522 785.974L499.82 716.934H411.1V480.226C411.1 480.226 395.081 474.678 381.526 460.5C367.972 446.322 350.72 431.528 340.863 399.474C331.005 367.419 340.863 351.392 340.863 351.392L411.1 387.762V371.118C411.1 371.118 370.436 351.392 352.569 339.68C334.701 327.968 323.611 318.105 316.218 311.325C308.825 304.544 293.422 289.75 284.796 274.339C276.171 258.928 267.545 233.655 274.322 194.203C281.1 154.752 284.796 166.464 284.796 166.464L411.1 223.175H509.678L462.853 90.6435L350.72 103.589L308.825 74H275.555L213.943 136.876L138.161 170.779L132 223.175L165.886 474.061L206.55 573.923L215.175 692.277L270.009 726.18V799.535L311.289 847H400.626L485.033 813.713L522 785.974Z" fill="#155DFC" stroke="#155DFC" stroke-width="5"/>
<path d="M560.979 219.973H688.702L678.213 340.171H550.489V416.605H654.766V520.776H546.787V716.175L570.234 781.514V797.54L587.511 861.029L654.766 890L776.936 869.042L782.489 801.238L801 791.376V772.884L764.596 743.297L776.936 716.175L801 675.493L871.34 659.466L888 615.086L859 374.689L839.255 340.171L830.617 39.3676L714 3L688.702 43.6824L665.255 39.3676L625.149 73.2696L600.468 60.9416L548.021 88.6796L540 173.126L560.979 219.973Z" fill="#E7000B" stroke="#E7000B" stroke-width="5"/>
<defs>
<linearGradient id="paint0_linear_727_96" x1="0" y1="1152" x2="1079" y2="1152" gradientUnits="userSpaceOnUse">
<stop stop-color="#155DFC"/>
<stop offset="1" stop-color="#E7000B"/>
</linearGradient>
</defs>
</svg>
