<svg width="2194" height="556" viewBox="0 0 2194 556" fill="none" xmlns="http://www.w3.org/2000/svg">
<path d="M798.87 381V260.48C798.87 250.82 800.94 242.31 805.08 234.95C809.373 227.437 815.277 221.61 822.79 217.47C830.303 213.177 838.89 211.03 848.55 211.03C856.83 211.03 863.807 212.18 869.48 214.48C875.307 216.78 879.447 219.003 881.9 221.15L873.85 241.62C871.09 239.627 867.64 237.71 863.5 235.87C859.36 234.03 855.297 233.11 851.31 233.11C843.643 233.11 837.51 234.413 832.91 237.02C828.463 239.627 825.243 243 823.25 247.14C821.41 251.28 820.49 255.727 820.49 260.48V381H809.68C808.453 381 806.92 381 805.08 381C803.393 381 801.323 381 798.87 381ZM770.35 286.47V264.62H874.31V286.47H770.35ZM953.2 381V210.8H976.89V381H953.2ZM1123.87 383.3C1113.29 383.3 1103.94 380.847 1095.81 375.94C1087.68 370.88 1081.32 363.673 1076.72 354.32C1072.27 344.967 1070.05 333.85 1070.05 320.97V260.25H1093.74V312.23C1093.74 322.657 1095.12 331.397 1097.88 338.45C1100.64 345.503 1104.93 350.793 1110.76 354.32C1116.74 357.847 1124.33 359.61 1133.53 359.61C1139.82 359.61 1145.72 358.69 1151.24 356.85C1156.91 354.857 1161.9 352.02 1166.19 348.34C1170.48 344.507 1173.86 339.983 1176.31 334.77C1178.76 329.403 1179.99 323.423 1179.99 316.83V260.25H1203.68V381H1179.99V355.7L1184.13 352.94C1182.14 357.54 1178.46 362.217 1173.09 366.97C1167.72 371.57 1160.9 375.48 1152.62 378.7C1144.34 381.767 1134.76 383.3 1123.87 383.3ZM1337.87 381L1269.33 260.25H1297.16L1352.36 362.6L1345.69 364.67L1403.42 260.25H1430.1L1359.49 381H1337.87ZM1556.03 383.3C1540.08 383.3 1525.9 380.693 1513.48 375.48C1501.06 370.113 1491.32 362.83 1484.27 353.63C1477.37 344.277 1473.92 333.697 1473.92 321.89C1473.92 311.77 1475.99 302.8 1480.13 294.98C1484.42 287.007 1490.25 280.26 1497.61 274.74C1505.12 269.22 1513.71 265.003 1523.37 262.09C1533.03 259.023 1543.22 257.49 1553.96 257.49C1564.08 257.49 1573.58 258.947 1582.48 261.86C1591.37 264.62 1599.19 268.607 1605.94 273.82C1612.68 279.033 1617.9 285.243 1621.58 292.45C1625.41 299.503 1627.25 307.4 1627.1 316.14L1626.87 328.56H1496L1490.71 309.7H1606.4L1602.95 311.31V305.79C1602.18 300.577 1599.34 295.977 1594.44 291.99C1589.68 288.003 1583.7 284.937 1576.5 282.79C1569.44 280.49 1561.93 279.34 1553.96 279.34C1543.53 279.34 1534.02 280.643 1525.44 283.25C1516.85 285.857 1510.03 290.15 1504.97 296.13C1499.91 302.11 1497.38 310.16 1497.38 320.28C1497.38 328.56 1500.06 335.767 1505.43 341.9C1510.79 348.033 1518.23 352.787 1527.74 356.16C1537.24 359.533 1548.21 361.22 1560.63 361.22C1573.05 361.22 1583.32 359.61 1591.45 356.39C1599.57 353.17 1606.17 350.103 1611.23 347.19L1621.58 365.13C1616.98 368.197 1611.15 371.187 1604.1 374.1C1597.2 376.86 1589.61 379.083 1581.33 380.77C1573.05 382.457 1564.61 383.3 1556.03 383.3ZM1710.97 381V260.25H1734.66V294.29L1725.92 294.75C1729.45 288.923 1733.97 283.173 1739.49 277.5C1745.16 271.827 1751.83 267.15 1759.5 263.47C1767.32 259.637 1776.06 257.72 1785.72 257.72C1798.45 257.72 1809.03 260.097 1817.46 264.85C1826.05 269.45 1832.49 275.737 1836.78 283.71C1841.07 291.53 1843.22 300.193 1843.22 309.7V381H1819.53V313.61C1819.53 306.863 1817.69 300.96 1814.01 295.9C1810.48 290.84 1805.73 286.93 1799.75 284.17C1793.92 281.257 1787.41 279.8 1780.2 279.8C1773.61 279.8 1767.47 281.027 1761.8 283.48C1756.28 285.78 1751.45 288.847 1747.31 292.68C1743.32 296.36 1740.18 300.347 1737.88 304.64C1735.73 308.933 1734.66 313.073 1734.66 317.06V381H1722.93C1718.94 381 1715.95 381 1713.96 381C1711.97 381 1710.97 381 1710.97 381ZM1962.08 433.9L1994.74 377.78V395.72L1917.92 260.25H1945.75L1981.4 326.26C1987.07 336.687 1991.82 345.887 1995.66 353.86C1999.49 361.68 2002.02 368.58 2003.25 374.56H2000.26C2002.4 368.733 2005.24 361.757 2008.77 353.63C2012.45 345.503 2016.89 336.38 2022.11 326.26L2056.61 260.25H2084.21L2016.13 382.38L1987.38 433.9H1962.08Z" fill="url(#paint0_linear_146_168)"/>
<path d="M245 485.421L231.237 442.908H176.185V297.147C176.185 297.147 166.245 293.73 157.834 285C149.423 276.27 138.719 267.159 132.602 247.421C126.485 227.683 132.602 217.813 132.602 217.813L176.185 240.209V229.96C176.185 229.96 150.953 217.813 139.866 210.601C128.779 203.389 121.897 197.316 117.31 193.14C112.722 188.965 103.164 179.855 97.812 170.365C92.4597 160.876 87.1074 145.313 91.3128 121.019C95.5182 96.7257 97.812 103.938 97.812 103.938L176.185 138.86H237.354L208.299 57.2488L138.719 65.2201L112.722 47H92.0774L53.8468 85.7177L6.82306 106.595L3 138.86L24.0269 293.351L49.2591 354.844L54.6114 427.724L88.6367 448.601V493.772L114.251 523H169.686L222.062 502.502L245 485.421Z" fill="#155DFC" stroke="#155DFC" stroke-width="5"/>
<path d="M267.901 137.049H346.443L339.993 211.309H261.45V258.53H325.574V322.889H259.174V443.609L273.592 483.976V493.877L284.216 533.101L325.574 551L400.702 538.052L404.117 496.162L415.5 490.069V478.644L393.113 460.365L400.702 443.609L415.5 418.475L458.755 408.573L469 381.154L451.167 232.634L439.025 211.309L433.713 25.4684L362 3L346.443 28.1341L332.025 25.4684L307.362 46.4135L292.184 38.7971L259.933 55.934L255 108.106L267.901 137.049Z" fill="#E7000B" stroke="#E7000B" stroke-width="5"/>
<defs>
<linearGradient id="paint0_linear_146_168" x1="2502.57" y1="212.515" x2="740.595" y2="334.093" gradientUnits="userSpaceOnUse">
<stop stop-color="#155DFC"/>
<stop offset="1" stop-color="#E7000B"/>
</linearGradient>
</defs>
</svg>
